<?xml version="1.0" encoding="UTF-8"?>
<svg width="15px" height="15px" viewBox="0 0 15 15" version="1.1" xmlns="http://www.w3.org/2000/svg" xmlns:xlink="http://www.w3.org/1999/xlink">
    <!-- Generator: Sketch 58 (84663) - https://sketch.com -->
    <title>search icon</title>
    <desc>Created with Sketch.</desc>
    <g id="Page-1" stroke="none" stroke-width="1" fill="none" fill-rule="evenodd">
        <g id="Cards-Copy-5" transform="translate(-1255.000000, -920.000000)" fill="#FFFFFF">
            <g id="Search" transform="translate(1114.000000, 903.000000)">
                <path d="M151.049758,23.1415186 C151.049758,25.2962843 149.296284,27.0497577 147.141519,27.0497577 C144.986753,27.0497577 143.233279,25.2962843 143.233279,23.1415186 C143.233279,20.9867528 144.986753,19.2332795 147.141519,19.2332795 C149.296284,19.2332795 151.049758,20.9867528 151.049758,23.1415186 L151.049758,23.1415186 Z M156,30.4210016 L152.201292,26.622294 C152.907916,25.6016155 153.283037,24.3802908 153.283037,23.1415186 C153.283037,19.7479806 150.535057,17 147.141519,17 C143.747981,17 141,19.7479806 141,23.1415186 C141,26.5350565 143.747981,29.2830372 147.141519,29.2830372 C148.380291,29.2830372 149.601616,28.907916 150.622294,28.2012924 L154.421002,31.9912763 L156,30.4210016 Z" id="search-icon"></path>
            </g>
        </g>
    </g>
</svg>